:SAMPLES-PER-SECOND 30
:FULLY-SPECIFIED
:DEGREES
80
root  -0.364369 39.8092 15.1637 -174.381 -4.54257 -179.484
RightUpLeg  -15.5946 -2.67144 -4.23786
RightLeg  12.4791 4.23202 -0.832549
RightFoot  -1.15644 -0.431223 4.74707
RightToes  -5.8209e-011 0 -3.6325e-017
Spine  32.3566 -2.49594 10.3564
Spine1  10.0575 0.533816 -0.901099
HEad  12.4396 -9.27567 2.64844
LeftShoulder1  7.00123 -16.9788 -28.0718
LeftArm  -2.83015 -36.3 -73.8502
LeftForeArm  39.7846 6.03192 -2.36622
LeftHand  -0.246645 0.021 5.37786
RightShoulder  9.13634 17.3549 37.7217
RightArm  -1.58397 36.0902 49.3886
RightForeArm  4.61038 3.45626 12.218
RightHand  -0.24729 -0.0210522 -5.37781
LeftUpLeg  -17.3506 9.75878 7.88539
LeftLeg  11.4165 -3.44051 -1.19772
LeftFoot  1.71533 0.668446 -5.92906
LeftToes  -7.45818e-011 -3.37383e-011 1.08613e-011
81
root  -0.178316 39.7984 15.1837 -174.318 -4.80746 -179.431
RightUpLeg  -15.8814 -2.30683 -3.96423
RightLeg  12.8939 3.57322 -0.884936
RightFoot  -1.25386 -0.406057 4.50049
RightToes  -5.8209e-011 0 -3.6325e-017
Spine  32.737 -2.46927 10.1533
Spine1  9.91415 0.507611 -0.808809
HEad  12.2246 -9.47661 3.22432
LeftShoulder1  6.96829 -17.0164 -27.8417
LeftArm  -3.05948 -36.4635 -74.5528
LeftForeArm  37.8098 6.05774 -2.2932
LeftHand  -0.246645 0.021 5.37786
RightShoulder  9.15555 17.3696 37.7804
RightArm  -1.78885 36.2913 49.2892
RightForeArm  6.12879 3.20886 12.1241
RightHand  -0.24729 -0.0210522 -5.37781
LeftUpLeg  -17.5724 9.72666 8.1283
LeftLeg  11.4997 -3.66123 -1.18939
LeftFoot  1.53243 0.612472 -5.51073
LeftToes  -7.45818e-011 -3.37383e-011 1.08613e-011
82
root  -0.0810982 39.7815 15.1928 -174.267 -4.9203 -179.449
RightUpLeg  -16.1628 -1.95895 -3.89275
RightLeg  13.3478 3.12697 -0.915341
RightFoot  -1.42459 -0.387933 4.35645
RightToes  -5.8209e-011 0 -3.6325e-017
Spine  32.9506 -2.45045 9.87296
Spine1  10.0134 0.413081 -0.645428
HEad  12.0111 -9.52396 3.50304
LeftShoulder1  6.82814 -17.0368 -27.1023
LeftArm  -2.74651 -37.1212 -75.7019
LeftForeArm  36.27 6.09714 -2.36117
LeftHand  -0.246645 0.021 5.37786
RightShoulder  9.15442 17.3668 37.781
RightArm  -1.86284 36.6319 49.3583
RightForeArm  7.86953 3.0279 12.0389
RightHand  -0.24729 -0.0210522 -5.37781
LeftUpLeg  -17.6883 9.59006 8.24057
LeftLeg  11.5086 -3.60876 -1.12544
LeftFoot  1.65471 0.636586 -5.67376
LeftToes  -7.45818e-011 -3.37383e-011 1.08613e-011
83
root  -0.067385 39.7644 15.1958 -174.303 -4.92659 -179.513
RightUpLeg  -16.3479 -1.47738 -3.99187
RightLeg  13.801 2.67918 -1.01011
RightFoot  -1.60169 -0.379722 4.32571
RightToes  -5.8209e-011 0 -3.6325e-017
Spine  33.2623 -2.52229 9.5086
Spine1  10.0256 0.185932 -0.415715
HEad  11.8564 -9.29044 3.3928
LeftShoulder1  6.58261 -16.9716 -25.9688
LeftArm  -2.22264 -38.0016 -77.1989
LeftForeArm  36.3257 6.08675 -2.30645
LeftHand  -0.246645 0.021 5.37786
RightShoulder  9.1588 17.3832 37.7678
RightArm  -1.82672 36.998 49.6072
RightForeArm  9.50018 2.83817 11.9748
RightHand  -0.24729 -0.0210522 -5.37781
LeftUpLeg  -17.5988 9.57386 8.24887
LeftLeg  11.3765 -3.53402 -1.11787
LeftFoot  1.99237 0.723389 -6.28888
LeftToes  -7.45818e-011 -3.37383e-011 1.08613e-011
84
root  -0.111255 39.7534 15.2005 -174.325 -4.69691 -179.582
RightUpLeg  -16.5363 -0.666577 -4.20985
RightLeg  14.1523 2.12014 -1.15015
RightFoot  -1.66731 -0.383379 4.39285
RightToes  -5.8209e-011 0 -3.6325e-017
Spine  33.7299 -2.54153 8.98636
Spine1  9.76645 -0.0247657 -0.12188
HEad  11.7848 -8.86195 3.11897
LeftShoulder1  6.29979 -16.8477 -24.7246
LeftArm  -1.89008 -38.7018 -78.7182
LeftForeArm  38.1864 5.99735 -1.97899
LeftHand  -0.246645 0.021 5.37786
RightShoulder  9.19254 17.4461 37.795
RightArm  -1.8263 37.2435 49.9076
RightForeArm  11.0515 2.553 11.8941
RightHand  -0.24729 -0.0210522 -5.37781
LeftUpLeg  -17.4512 10.0488 8.18275
LeftLeg  11.2457 -3.66328 -1.2974
LeftFoot  2.24256 0.786703 -6.71654
LeftToes  -7.45818e-011 -3.37383e-011 1.08613e-011
85
root  -0.1932 39.7473 15.2093 -174.257 -4.20412 -179.653
RightUpLeg  -16.7999 0.329117 -4.52321
RightLeg  14.3604 1.60279 -1.2349
RightFoot  -1.64166 -0.393665 4.50433
RightToes  -5.8209e-011 0 -3.6325e-017
Spine  34.1718 -2.40523 8.32716
Spine1  9.45958 -0.115147 0.22431
HEad  11.7618 -8.40111 2.94662
LeftShoulder1  6.0526 -16.7493 -23.6022
LeftArm  -1.95699 -39.0116 -79.9361
LeftForeArm  40.3178 5.8704 -1.47686
LeftHand  -0.246645 0.021 5.37786
RightShoulder  9.23983 17.5144 37.8736
RightArm  -2.02264 37.3875 50.2179
RightForeArm  12.9801 2.11223 11.7075
RightHand  -0.24729 -0.0210522 -5.37781
LeftUpLeg  -17.3951 10.7708 8.056
LeftLeg  11.2538 -3.7706 -1.55777
LeftFoot  2.2782 0.786924 -6.70153
LeftToes  -7.45818e-011 -3.37383e-011 1.08613e-011
